<svg width="211" height="75" viewBox="0 0 211 75" fill="none" xmlns="http://www.w3.org/2000/svg">
<g id="Union" filter="url(#filter0_d_0_38)">
<mask id="path-1-outside-1_0_38" maskUnits="userSpaceOnUse" x="7.99988" y="3" width="195" height="59" fill="black">
<rect fill="white" x="7.99988" y="3" width="195" height="59"/>
<path fill-rule="evenodd" clip-rule="evenodd" d="M173.5 4C189.24 4 202 16.7599 202 32.5C202 48.2401 189.24 61 173.5 61C164.114 61 155.788 56.4628 150.595 49.4621C148.886 47.1584 144.114 47.1584 142.405 49.4621C137.212 56.4628 128.886 61 119.5 61H37.5C21.7599 61 9 48.2401 9 32.5C9 16.7599 21.7599 4 37.5 4H119.5C128.886 4 137.212 8.53717 142.405 15.5379C144.114 17.8416 148.886 17.8416 150.595 15.5379C155.788 8.53717 164.114 4 173.5 4Z"/>
</mask>
<path fill-rule="evenodd" clip-rule="evenodd" d="M173.5 4C189.24 4 202 16.7599 202 32.5C202 48.2401 189.24 61 173.5 61C164.114 61 155.788 56.4628 150.595 49.4621C148.886 47.1584 144.114 47.1584 142.405 49.4621C137.212 56.4628 128.886 61 119.5 61H37.5C21.7599 61 9 48.2401 9 32.5C9 16.7599 21.7599 4 37.5 4H119.5C128.886 4 137.212 8.53717 142.405 15.5379C144.114 17.8416 148.886 17.8416 150.595 15.5379C155.788 8.53717 164.114 4 173.5 4Z" fill="#181818"/>
<path d="M150.595 15.5379L151.398 16.1336L150.595 15.5379ZM150.595 49.4621L151.398 48.8664L150.595 49.4621ZM142.405 49.4621L143.208 50.0579L142.405 49.4621ZM201 32.5C201 17.3122 188.688 5 173.5 5V3C189.792 3 203 16.2076 203 32.5H201ZM173.5 60C188.688 60 201 47.6878 201 32.5H203C203 48.7924 189.792 62 173.5 62V60ZM151.398 48.8664C156.41 55.6237 164.444 60 173.5 60V62C163.784 62 155.165 57.3019 149.792 50.0579L151.398 48.8664ZM119.5 60C128.556 60 136.589 55.6237 141.602 48.8664L143.208 50.0579C137.835 57.3019 129.216 62 119.5 62V60ZM37.5 60H119.5V62H37.5V60ZM10 32.5C10 47.6878 22.3122 60 37.5 60V62C21.2076 62 8 48.7924 8 32.5H10ZM37.5 5C22.3122 5 10 17.3122 10 32.5H8C8 16.2076 21.2076 3 37.5 3V5ZM119.5 5H37.5V3H119.5V5ZM141.602 16.1336C136.589 9.37627 128.556 5 119.5 5V3C129.216 3 137.835 7.69807 143.208 14.9421L141.602 16.1336ZM173.5 5C164.444 5 156.41 9.37627 151.398 16.1336L149.792 14.9421C155.165 7.69807 163.784 3 173.5 3V5ZM143.208 14.9421C143.806 15.7484 145.062 16.2657 146.5 16.2657C147.938 16.2657 149.194 15.7484 149.792 14.9421L151.398 16.1336C150.287 17.6311 148.303 18.2657 146.5 18.2657C144.697 18.2657 142.713 17.6311 141.602 16.1336L143.208 14.9421ZM149.792 50.0579C149.194 49.2516 147.938 48.7343 146.5 48.7343C145.062 48.7343 143.806 49.2516 143.208 50.0579L141.602 48.8664C142.713 47.3689 144.697 46.7343 146.5 46.7343C148.303 46.7343 150.287 47.3689 151.398 48.8664L149.792 50.0579Z" fill="white" mask="url(#path-1-outside-1_0_38)"/>
<path d="M150.595 15.5379L151.398 16.1336L150.595 15.5379ZM150.595 49.4621L151.398 48.8664L150.595 49.4621ZM142.405 49.4621L143.208 50.0579L142.405 49.4621ZM201 32.5C201 17.3122 188.688 5 173.5 5V3C189.792 3 203 16.2076 203 32.5H201ZM173.5 60C188.688 60 201 47.6878 201 32.5H203C203 48.7924 189.792 62 173.5 62V60ZM151.398 48.8664C156.41 55.6237 164.444 60 173.5 60V62C163.784 62 155.165 57.3019 149.792 50.0579L151.398 48.8664ZM119.5 60C128.556 60 136.589 55.6237 141.602 48.8664L143.208 50.0579C137.835 57.3019 129.216 62 119.5 62V60ZM37.5 60H119.5V62H37.5V60ZM10 32.5C10 47.6878 22.3122 60 37.5 60V62C21.2076 62 8 48.7924 8 32.5H10ZM37.5 5C22.3122 5 10 17.3122 10 32.5H8C8 16.2076 21.2076 3 37.5 3V5ZM119.5 5H37.5V3H119.5V5ZM141.602 16.1336C136.589 9.37627 128.556 5 119.5 5V3C129.216 3 137.835 7.69807 143.208 14.9421L141.602 16.1336ZM173.5 5C164.444 5 156.41 9.37627 151.398 16.1336L149.792 14.9421C155.165 7.69807 163.784 3 173.5 3V5ZM143.208 14.9421C143.806 15.7484 145.062 16.2657 146.5 16.2657C147.938 16.2657 149.194 15.7484 149.792 14.9421L151.398 16.1336C150.287 17.6311 148.303 18.2657 146.5 18.2657C144.697 18.2657 142.713 17.6311 141.602 16.1336L143.208 14.9421ZM149.792 50.0579C149.194 49.2516 147.938 48.7343 146.5 48.7343C145.062 48.7343 143.806 49.2516 143.208 50.0579L141.602 48.8664C142.713 47.3689 144.697 46.7343 146.5 46.7343C148.303 46.7343 150.287 47.3689 151.398 48.8664L149.792 50.0579Z" fill="url(#paint0_linear_0_38)" mask="url(#path-1-outside-1_0_38)"/>
</g>
<defs>
<filter id="filter0_d_0_38" x="0" y="0" width="211" height="75" filterUnits="userSpaceOnUse" color-interpolation-filters="sRGB">
<feFlood flood-opacity="0" result="BackgroundImageFix"/>
<feColorMatrix in="SourceAlpha" type="matrix" values="0 0 0 0 0 0 0 0 0 0 0 0 0 0 0 0 0 0 127 0" result="hardAlpha"/>
<feOffset dy="5"/>
<feGaussianBlur stdDeviation="4"/>
<feComposite in2="hardAlpha" operator="out"/>
<feColorMatrix type="matrix" values="0 0 0 0 0 0 0 0 0 0 0 0 0 0 0 0 0 0 0.04 0"/>
<feBlend mode="normal" in2="BackgroundImageFix" result="effect1_dropShadow_0_38"/>
<feBlend mode="normal" in="SourceGraphic" in2="effect1_dropShadow_0_38" result="shape"/>
</filter>
<linearGradient id="paint0_linear_0_38" x1="169" y1="8" x2="153" y2="35" gradientUnits="userSpaceOnUse">
<stop stop-color="#D1D1D1"/>
<stop offset="1" stop-color="white" stop-opacity="0"/>
</linearGradient>
</defs>
</svg>
