<svg width="169" height="75" viewBox="0 0 169 75" fill="none" xmlns="http://www.w3.org/2000/svg">
<g id="Union" filter="url(#filter0_d_0_45)">
<mask id="path-1-outside-1_0_45" maskUnits="userSpaceOnUse" x="8" y="3" width="153" height="59" fill="black">
<rect fill="white" x="8" y="3" width="153" height="59"/>
<path fill-rule="evenodd" clip-rule="evenodd" d="M37.5 4C21.7599 4 9 16.7599 9 32.5C9 48.2401 21.7599 61 37.5 61C46.8859 61 55.2121 56.4628 60.405 49.4621C62.1139 47.1583 66.8861 47.1583 68.595 49.4621C73.7879 56.4628 82.1141 61 91.5 61H131.5C147.24 61 160 48.2401 160 32.5C160 16.7599 147.24 4 131.5 4H91.5C82.1141 4 73.7879 8.53717 68.595 15.5379C66.8861 17.8417 62.1139 17.8417 60.405 15.5379C55.2121 8.53717 46.8859 4 37.5 4Z"/>
</mask>
<path fill-rule="evenodd" clip-rule="evenodd" d="M37.5 4C21.7599 4 9 16.7599 9 32.5C9 48.2401 21.7599 61 37.5 61C46.8859 61 55.2121 56.4628 60.405 49.4621C62.1139 47.1583 66.8861 47.1583 68.595 49.4621C73.7879 56.4628 82.1141 61 91.5 61H131.5C147.24 61 160 48.2401 160 32.5C160 16.7599 147.24 4 131.5 4H91.5C82.1141 4 73.7879 8.53717 68.595 15.5379C66.8861 17.8417 62.1139 17.8417 60.405 15.5379C55.2121 8.53717 46.8859 4 37.5 4Z" fill="#181818"/>
<path d="M68.595 15.5379L67.7918 14.9421L68.595 15.5379ZM60.405 15.5379L59.6018 16.1336L60.405 15.5379ZM60.405 49.4621L61.2082 50.0579L60.405 49.4621ZM68.595 49.4621L67.7918 50.0579L68.595 49.4621ZM10 32.5C10 17.3122 22.3122 5 37.5 5V3C21.2076 3 8 16.2076 8 32.5H10ZM37.5 60C22.3122 60 10 47.6878 10 32.5H8C8 48.7924 21.2076 62 37.5 62V60ZM59.6018 48.8664C54.5895 55.6237 46.5559 60 37.5 60V62C47.2159 62 55.8348 57.3019 61.2082 50.0579L59.6018 48.8664ZM91.5 60C82.4441 60 74.4105 55.6237 69.3982 48.8664L67.7918 50.0579C73.1652 57.3019 81.7841 62 91.5 62V60ZM131.5 60H91.5V62H131.5V60ZM159 32.5C159 47.6878 146.688 60 131.5 60V62C147.792 62 161 48.7924 161 32.5H159ZM131.5 5C146.688 5 159 17.3122 159 32.5H161C161 16.2076 147.792 3 131.5 3V5ZM91.5 5H131.5V3H91.5V5ZM69.3982 16.1336C74.4105 9.37627 82.4441 5 91.5 5V3C81.7841 3 73.1652 7.69807 67.7918 14.9421L69.3982 16.1336ZM37.5 5C46.5559 5 54.5895 9.37627 59.6018 16.1336L61.2082 14.9421C55.8348 7.69807 47.2159 3 37.5 3V5ZM67.7918 14.9421C67.1938 15.7484 65.9378 16.2657 64.5 16.2657C63.0622 16.2657 61.8062 15.7484 61.2082 14.9421L59.6018 16.1336C60.7126 17.6311 62.6973 18.2657 64.5 18.2657C66.3027 18.2657 68.2874 17.6311 69.3982 16.1336L67.7918 14.9421ZM61.2082 50.0579C61.8062 49.2516 63.0622 48.7343 64.5 48.7343C65.9378 48.7343 67.1938 49.2516 67.7918 50.0579L69.3982 48.8664C68.2874 47.3689 66.3027 46.7343 64.5 46.7343C62.6973 46.7343 60.7126 47.3689 59.6018 48.8664L61.2082 50.0579Z" fill="white" mask="url(#path-1-outside-1_0_45)"/>
<path d="M68.595 15.5379L67.7918 14.9421L68.595 15.5379ZM60.405 15.5379L59.6018 16.1336L60.405 15.5379ZM60.405 49.4621L61.2082 50.0579L60.405 49.4621ZM68.595 49.4621L67.7918 50.0579L68.595 49.4621ZM10 32.5C10 17.3122 22.3122 5 37.5 5V3C21.2076 3 8 16.2076 8 32.5H10ZM37.5 60C22.3122 60 10 47.6878 10 32.5H8C8 48.7924 21.2076 62 37.5 62V60ZM59.6018 48.8664C54.5895 55.6237 46.5559 60 37.5 60V62C47.2159 62 55.8348 57.3019 61.2082 50.0579L59.6018 48.8664ZM91.5 60C82.4441 60 74.4105 55.6237 69.3982 48.8664L67.7918 50.0579C73.1652 57.3019 81.7841 62 91.5 62V60ZM131.5 60H91.5V62H131.5V60ZM159 32.5C159 47.6878 146.688 60 131.5 60V62C147.792 62 161 48.7924 161 32.5H159ZM131.5 5C146.688 5 159 17.3122 159 32.5H161C161 16.2076 147.792 3 131.5 3V5ZM91.5 5H131.5V3H91.5V5ZM69.3982 16.1336C74.4105 9.37627 82.4441 5 91.5 5V3C81.7841 3 73.1652 7.69807 67.7918 14.9421L69.3982 16.1336ZM37.5 5C46.5559 5 54.5895 9.37627 59.6018 16.1336L61.2082 14.9421C55.8348 7.69807 47.2159 3 37.5 3V5ZM67.7918 14.9421C67.1938 15.7484 65.9378 16.2657 64.5 16.2657C63.0622 16.2657 61.8062 15.7484 61.2082 14.9421L59.6018 16.1336C60.7126 17.6311 62.6973 18.2657 64.5 18.2657C66.3027 18.2657 68.2874 17.6311 69.3982 16.1336L67.7918 14.9421ZM61.2082 50.0579C61.8062 49.2516 63.0622 48.7343 64.5 48.7343C65.9378 48.7343 67.1938 49.2516 67.7918 50.0579L69.3982 48.8664C68.2874 47.3689 66.3027 46.7343 64.5 46.7343C62.6973 46.7343 60.7126 47.3689 59.6018 48.8664L61.2082 50.0579Z" fill="url(#paint0_linear_0_45)" mask="url(#path-1-outside-1_0_45)"/>
</g>
<defs>
<filter id="filter0_d_0_45" x="0" y="0" width="169" height="75" filterUnits="userSpaceOnUse" color-interpolation-filters="sRGB">
<feFlood flood-opacity="0" result="BackgroundImageFix"/>
<feColorMatrix in="SourceAlpha" type="matrix" values="0 0 0 0 0 0 0 0 0 0 0 0 0 0 0 0 0 0 127 0" result="hardAlpha"/>
<feOffset dy="5"/>
<feGaussianBlur stdDeviation="4"/>
<feComposite in2="hardAlpha" operator="out"/>
<feColorMatrix type="matrix" values="0 0 0 0 0 0 0 0 0 0 0 0 0 0 0 0 0 0 0.04 0"/>
<feBlend mode="normal" in2="BackgroundImageFix" result="effect1_dropShadow_0_45"/>
<feBlend mode="normal" in="SourceGraphic" in2="effect1_dropShadow_0_45" result="shape"/>
</filter>
<linearGradient id="paint0_linear_0_45" x1="21" y1="8" x2="37" y2="35" gradientUnits="userSpaceOnUse">
<stop stop-color="#D1D1D1"/>
<stop offset="1" stop-color="white" stop-opacity="0"/>
</linearGradient>
</defs>
</svg>
